<?xml version="1.0" encoding="utf-8"?>
<!-- Generator: Adobe Illustrator 19.1.0, SVG Export Plug-In . SVG Version: 6.00 Build 0)  -->
<svg version="1.1" id="Layer_1" xmlns="http://www.w3.org/2000/svg" xmlns:xlink="http://www.w3.org/1999/xlink" x="0px" y="0px"
	 viewBox="0 0 500 300" style="enable-background:new 0 0 500 300;" xml:space="preserve">
<style type="text/css">
	.Arched_x0020_Green{fill:url(#SVGID_1_);stroke:#FFFFFF;stroke-width:0.25;stroke-miterlimit:1;}
	.st0{fill:#49BAD5;}
	.st1{opacity:0.34;fill:#378CA0;}
	.st2{fill:#F5F9E2;}
	.st3{fill:#FDCF9D;}
	.st4{fill:#E5EBF0;}
	.st5{fill:#BDCED9;}
	.st6{fill:#8E9BA3;}
	.st7{fill:#5B849F;}
	.st8{fill:#132633;}
	.st9{fill:#264C65;}
	.st10{fill:#D9DBDC;}
	.st11{fill:#7C9DB2;}
	.st12{fill:#9EA5AC;}
	.st13{fill:#ADB4B7;}
	.st14{fill:#9CA3A6;}
	.st15{fill:#89D2E4;}
	.st16{fill:#C3E8F1;}
	.st17{fill:#E7F6F9;}
	.st18{fill:#FAFBFA;}
	.st19{opacity:0.85;fill:#72C0FB;}
	.st20{fill:#D9EBF9;}
	.st21{fill:#C7E6FD;}
	.st22{fill:#2C130B;}
	.st23{fill:#0F0F0F;}
	.st24{fill:#F9643C;}
	.st25{fill:#382D26;}
	.st26{fill:#FDD9B1;}
	.st27{fill:#FFFFFF;}
	.st28{fill:#B04C2C;}
	.st29{fill:#DEF5F9;}
	.st30{fill:#0C1F2F;}
</style>
<linearGradient id="SVGID_1_" gradientUnits="userSpaceOnUse" x1="0" y1="300" x2="0.7071" y2="299.2929">
	<stop  offset="0" style="stop-color:#1EAB4B"/>
	<stop  offset="0.9831" style="stop-color:#19361A"/>
</linearGradient>
<rect class="st0" width="500" height="300"/>
<rect y="263.4" class="st1" width="500" height="36.5"/>
<ellipse class="st1" cx="247.1" cy="286.6" rx="22.2" ry="3.7"/>
<polygon class="st1" points="328.1,281.4 171.3,281.4 177.9,275.1 321.6,275.1 "/>
<path class="st2" d="M265.5,212.2"/>
<path class="st3" d="M248.4,184.7C248.5,184.7,248.5,184.7,248.4,184.7C248.5,184.7,248.5,184.7,248.4,184.7"/>
<path class="st3" d="M248.5,181.3c0-0.2,0-0.5,0-0.7C248.5,180.9,248.5,181.1,248.5,181.3z"/>
<rect x="178.3" y="221.2" class="st4" width="2.4" height="54.1"/>
<rect x="318.9" y="221" class="st4" width="2.4" height="54.2"/>
<rect x="297.7" y="222.4" class="st5" width="28.8" height="13.4"/>
<rect x="297.7" y="236.1" class="st5" width="28.8" height="13.4"/>
<rect x="297.7" y="250.2" class="st5" width="28.8" height="13.4"/>
<rect x="298.2" y="263.5" class="st4" width="29.1" height="1.3"/>
<polygon class="st5" points="293,258.6 293,221.1 297.1,221.1 297.1,264.8 "/>
<rect x="325.8" y="221" class="st4" width="2.4" height="60.3"/>
<rect x="298.2" y="235.8" class="st4" width="29.1" height="1.3"/>
<rect x="298.2" y="249.4" class="st4" width="29.1" height="1.3"/>
<rect x="171.3" y="221" class="st4" width="156.8" height="2.4"/>
<polygon class="st5" points="328.1,221.2 171.3,221.2 177.9,214.9 321.6,214.9 "/>
<path class="st6" d="M309.3,223.5c0,1.7,1.4,3.1,3.1,3.1c1.7,0,3.1-1.4,3.1-3.1c0,0,0-0.1,0-0.1h-6.1
	C309.3,223.4,309.3,223.4,309.3,223.5z"/>
<path class="st6" d="M309.3,237.2c0,1.7,1.4,3.1,3.1,3.1c1.7,0,3.1-1.4,3.1-3.1c0,0,0-0.1,0-0.1h-6.1
	C309.3,237.1,309.3,237.2,309.3,237.2z"/>
<path class="st6" d="M309.3,250.8c0,1.7,1.4,3.1,3.1,3.1c1.7,0,3.1-1.4,3.1-3.1c0,0,0-0.1,0-0.1h-6.1
	C309.3,250.8,309.3,250.8,309.3,250.8z"/>
<rect x="296.8" y="221.9" class="st4" width="2.4" height="42.9"/>
<rect x="238" y="205.4" class="st7" width="20.9" height="10.6"/>
<rect x="238" y="205.4" class="st8" width="20.9" height="4.4"/>
<path class="st9" d="M291.4,204.8c0,1.4-1,2.5-2.3,2.5h-82.3c-1.3,0-2.3-1.1-2.3-2.5v-56.4c0-1.4,1-2.5,2.3-2.5h82.3
	c1.2,0,2.3,1.1,2.3,2.5V204.8z"/>
<rect x="207.5" y="148.9" class="st10" width="81.9" height="50.5"/>
<path class="st2" d="M248.5,217.2"/>
<rect x="232" y="215.6" class="st11" width="33" height="1.3"/>
<polygon class="st12" points="271.6,220 220.6,220 221.4,217.8 270.9,217.8 "/>
<polygon class="st9" points="220.6,218.9 221.4,217.8 270.9,217.8 271.6,218.9 "/>
<rect x="220.6" y="218.9" class="st7" width="51" height="1.1"/>
<rect x="171.3" y="221.7" class="st4" width="2.4" height="59.6"/>
<path class="st13" d="M289.2,149.8c0-0.5-0.4-0.9-0.9-0.9h-79.9c-0.5,0-0.9,0.4-0.9,0.9v3.2h81.7V149.8z"/>
<g>
	<path class="st14" d="M279.5,151c0,0.7-0.6,1.3-1.3,1.3l0,0c-0.7,0-1.3-0.6-1.3-1.3l0,0c0-0.7,0.6-1.3,1.3-1.3l0,0
		C279,149.8,279.5,150.3,279.5,151L279.5,151z"/>
	<path class="st14" d="M283.3,151c0,0.7-0.6,1.3-1.3,1.3l0,0c-0.7,0-1.3-0.6-1.3-1.3l0,0c0-0.7,0.6-1.3,1.3-1.3l0,0
		C282.7,149.8,283.3,150.3,283.3,151L283.3,151z"/>
	<path class="st14" d="M287,151c0,0.7-0.6,1.3-1.3,1.3l0,0c-0.7,0-1.3-0.6-1.3-1.3l0,0c0-0.7,0.6-1.3,1.3-1.3l0,0
		C286.4,149.8,287,150.3,287,151L287,151z"/>
</g>
<path class="st15" d="M336.3,143.1h-40.7c-0.7,0-1.3,0.6-1.3,1.3v29.4c0,0.7,0.6,1.3,1.3,1.3h4.1l0.1,10.2l10.9-10.2h7.2l0,0h18.3
	c0.7,0,1.3-0.6,1.3-1.3v-29.4C337.6,143.7,337,143.1,336.3,143.1z"/>
<path class="st15" d="M411.1,102.1h-57.3c-1,0-1.8,0.8-1.8,1.8v41.5c0,1,0.8,1.8,1.8,1.8h5.8l0.1,14.4l15.4-14.4h10.2l0,0h25.8
	c1,0,1.8-0.8,1.8-1.8v-41.5C412.9,102.9,412.1,102.1,411.1,102.1z"/>
<path class="st16" d="M385.6,28h-43.3c-0.8,0-1.4,0.6-1.4,1.4v31.3c0,0.8,0.6,1.4,1.4,1.4h4.3l0.1,10.9l11.6-10.9h7.7l0,0h19.5
	c0.8,0,1.4-0.6,1.4-1.4V29.4C387,28.7,386.4,28,385.6,28z"/>
<path class="st17" d="M424.3,65.7h-25.8c-0.4,0-0.8,0.4-0.8,0.8v18.7c0,0.4,0.4,0.8,0.8,0.8h2.6l0.1,6.5L408,86h4.6l0,0h11.6
	c0.5,0,0.8-0.4,0.8-0.8V66.5C425.1,66,424.7,65.7,424.3,65.7z"/>
<path class="st16" d="M357.7,166.3h-25.8c-0.4,0-0.8,0.4-0.8,0.8v18.7c0,0.5,0.4,0.8,0.8,0.8h2.6l0.1,6.5l6.9-6.5h4.6l0,0h11.6
	c0.5,0,0.8-0.4,0.8-0.8v-18.7C358.5,166.7,358.2,166.3,357.7,166.3z"/>
<path class="st16" d="M309.4,19.6h-25.8c-0.4,0-0.8,0.4-0.8,0.8v18.7c0,0.4,0.4,0.8,0.8,0.8h2.6l0.1,6.5l6.9-6.5h4.6l0,0h11.6
	c0.5,0,0.8-0.4,0.8-0.8V20.4C310.2,19.9,309.8,19.6,309.4,19.6z"/>
<path class="st15" d="M115.7,30.3h25.8c0.4,0,0.8,0.4,0.8,0.8v18.7c0,0.5-0.4,0.8-0.8,0.8h-2.6l-0.1,6.5l-6.9-6.5h-4.6l0,0h-11.6
	c-0.5,0-0.8-0.4-0.8-0.8V31.1C114.9,30.6,115.3,30.3,115.7,30.3z"/>
<path class="st16" d="M328.6,58.1h-75.2c-1.3,0-2.4,1.1-2.4,2.4V115c0,1.3,1.1,2.4,2.4,2.4h7.6l0.2,19l20.2-18.9h13.4l0.1-0.1h33.9
	c1.3,0,2.4-1.1,2.4-2.4V60.5C331,59.2,330,58.1,328.6,58.1z"/>
<path class="st15" d="M80.8,120.1h51.8c0.9,0,1.6,0.7,1.6,1.6v37.5c0,0.9-0.7,1.6-1.6,1.6h-5.2l-0.1,13.1l-13.9-13h-9.2l0,0H80.8
	c-0.9,0-1.6-0.7-1.6-1.6v-37.5C79.2,120.8,79.9,120.1,80.8,120.1z"/>
<path class="st15" d="M151.1,46.2h79.7c1.4,0,2.5,1.1,2.5,2.5v57.7c0,1.4-1.1,2.5-2.5,2.5h-8l-0.2,20.1l-21.4-20h-14.2l-0.1-0.1
	h-35.9c-1.4,0-2.5-1.1-2.5-2.5V48.8C148.6,47.4,149.8,46.2,151.1,46.2z"/>
<path class="st15" d="M150.9,150.3h39.4c0.7,0,1.2,0.6,1.2,1.3V180c0,0.7-0.6,1.2-1.2,1.2h-4l-0.1,9.9l-10.6-9.9h-7l0,0h-17.7
	c-0.7,0-1.2-0.6-1.2-1.2v-28.5C149.6,150.8,150.2,150.3,150.9,150.3z"/>
<path class="st17" d="M354.9,76.6h-78.1c-1.4,0-2.5,1.1-2.5,2.5v56.5c0,1.4,1.1,2.5,2.5,2.5h7.8l0.2,19.7l20.9-19.6h13.9l0.1-0.1
	h35.2c1.4,0,2.5-1.1,2.5-2.5V79.1C357.4,77.7,356.3,76.6,354.9,76.6z"/>
<path class="st16" d="M125.9,83.4H204c1.4,0,2.5,1.1,2.5,2.5v56.5c0,1.4-1.1,2.5-2.5,2.5h-7.8l-0.2,19.7l-20.9-19.6h-13.9l-0.1-0.1
	h-35.2c-1.4,0-2.5-1.1-2.5-2.5V85.9C123.5,84.5,124.6,83.4,125.9,83.4z"/>
<path class="st17" d="M167.5,25.8h82.7c1.4,0,2.6,1.2,2.6,2.6v59.8c0,1.4-1.2,2.6-2.6,2.6h-8.3l-0.2,20.8l-22.2-20.8h-14.7l-0.1-0.1
	h-37.2c-1.4,0-2.6-1.2-2.6-2.6V28.4C164.9,26.9,166,25.8,167.5,25.8z"/>
<rect x="219.2" y="156.5" transform="matrix(1 -1.454178e-03 1.454178e-03 1 -0.2582 0.3624)" class="st18" width="59.8" height="42.4"/>
<rect x="219.2" y="162.9" transform="matrix(1 -1.487586e-03 1.487586e-03 1 -0.2576 0.3707)" class="st19" width="59.8" height="20.8"/>
<rect x="223.6" y="158" transform="matrix(1 -1.760128e-03 1.760128e-03 1 -0.2811 0.4021)" class="st20" width="9.4" height="3.8"/>
<g>
	
		<rect x="222.1" y="169.9" transform="matrix(1 -1.434640e-03 1.434640e-03 1 -0.2441 0.3359)" class="st21" width="23.8" height="0.7"/>
	
		<rect x="222.1" y="171.5" transform="matrix(1 -1.557296e-03 1.557296e-03 1 -0.2674 0.3617)" class="st21" width="20" height="0.7"/>
	
		<rect x="222.1" y="173.1" transform="matrix(1 -1.489000e-03 1.489000e-03 1 -0.2581 0.3441)" class="st21" width="17.7" height="0.7"/>
	<path class="st21" d="M274.4,177.9c0,1.2-1,2.2-2.2,2.2l-9.8,0c-1.2,0-2.2-1-2.2-2.2l0-9.4c0-1.2,1-2.2,2.2-2.2l9.8,0
		c1.2,0,2.2,1,2.2,2.2L274.4,177.9z"/>
</g>
<g>
	<path class="st3" d="M250,201.5l-1.2-7.9c0-2,0.7-3.3-1.6-3.3c-2.3,0-1.3,1.6-1.3,3.7l-1.3,7.6c0,0,0,0.1,0,0.1L250,201.5
		C250,201.6,250,201.6,250,201.5z"/>
	<rect x="237.6" y="277.3" class="st3" width="3" height="4.9"/>
	<g>
		<path class="st22" d="M236.8,281.3c0,0,0-0.3,0.1-0.3c0,0,0-0.8,0.7-1.4c0,0,0.1,0.1,0.3,0.1c0.2-0.1,0.5-0.2,0.8-0.3
			c0.3-0.1,0.6-0.3,1.1,0c0,0,0.3,0.2,0.5,0.3c0,0,0.4-0.1,0.4-0.1c0,0,0.2,0.2,0.2,0.5c0,0.3,0.1,0.5,0.1,0.7
			c0,0.1,0.2,0.6,0.2,0.8c0,0.2,0,0.4,0,0.4c0,0,0,0,0,0.2c0,0.1,0,0.2,0,0.3c0,0.1,0,0.2-0.2,0.3c-0.2,0.1-1.3,0.2-1.8,0.2
			c-0.5,0-1.5-0.1-1.8-0.4c0,0-0.1-0.1-0.2-0.4c-0.1-0.3-0.2-0.3-0.3-0.4C236.9,281.6,236.8,281.5,236.8,281.3z"/>
		<path class="st23" d="M236.8,281.3c0,0-0.1,0.2-0.1,0.3c0,0.1-0.1,0.6,0.1,0.6c0.2,0.1,0.3,0.2,0.3,0.4c0,0.2-0.1,1.1,0.4,1.3
			c0.4,0.2,1.7,0.6,3.6,0.1c0,0,0.1,0,0.1-0.2c0-0.2,0-1.1,0-1.1s0-0.1-0.1-0.1c-0.1,0-1.6,0.1-1.6,0.1s-1.5-0.1-1.7-0.2
			c-0.2-0.1-0.4-0.3-0.5-0.5c-0.1-0.2-0.1-0.3-0.3-0.4C236.9,281.4,236.8,281.4,236.8,281.3z"/>
	</g>
	<rect x="255" y="277.3" class="st3" width="3" height="4.9"/>
	<g>
		<path class="st22" d="M254.2,281.3c0,0,0-0.3,0.1-0.3c0,0,0-0.8,0.7-1.4c0,0,0.1,0.1,0.3,0.1c0.2-0.1,0.5-0.2,0.8-0.3
			c0.3-0.1,0.6-0.3,1.1,0c0,0,0.3,0.2,0.5,0.3c0,0,0.4-0.1,0.4-0.1c0,0,0.2,0.2,0.2,0.5c0,0.3,0.1,0.5,0.1,0.7
			c0,0.1,0.2,0.6,0.2,0.8c0,0.2,0,0.4,0,0.4c0,0,0,0,0,0.2c0,0.1,0,0.2,0,0.3c0,0.1,0,0.2-0.2,0.3c-0.2,0.1-1.3,0.2-1.8,0.2
			c-0.5,0-1.5-0.1-1.8-0.4c0,0-0.1-0.1-0.2-0.4c-0.1-0.3-0.2-0.3-0.3-0.4C254.3,281.6,254.2,281.5,254.2,281.3z"/>
		<path class="st23" d="M254.2,281.3c0,0-0.1,0.2-0.1,0.3c0,0.1-0.1,0.6,0.1,0.6c0.2,0.1,0.2,0.2,0.2,0.4c0,0.2-0.1,1.1,0.4,1.3
			c0.4,0.2,1.7,0.6,3.6,0.1c0,0,0.1,0,0.1-0.2c0-0.2,0-1.1,0-1.1s0-0.1-0.1-0.1c-0.1,0-1.6,0.1-1.6,0.1s-1.5-0.1-1.7-0.2
			c-0.2-0.1-0.4-0.3-0.5-0.5c-0.1-0.2-0.1-0.3-0.3-0.4C254.3,281.4,254.2,281.4,254.2,281.3z"/>
	</g>
	<path class="st9" d="M242.9,249l4.9-0.1h0.5h4.5c6.5,0,5.8-7,6.3-13.2l-22.1,0C237.5,241.8,236.5,249,242.9,249z"/>
	<path class="st3" d="M255.5,181.5c-0.3,0-0.5,0.1-0.8,0.4v-3.6c0-4.1-2.4-7.3-7.1-7.4c0,0,0,0,0,0c0,0,0,0-0.1,0c0,0,0,0-0.1,0
		c0,0,0,0,0,0c0,0-0.1,0-0.1,0c0,0-0.1,0-0.1,0c0,0,0,0,0,0c0,0,0,0-0.1,0c0,0,0,0-0.1,0c0,0,0,0,0,0c-4.8,0.1-7,3.3-7,7.4v3.6
		c-0.2-0.3-0.5-0.5-0.8-0.4c-0.6,0.1-0.8,1-0.6,2.1c0.2,1.1,0.8,1.9,1.4,1.9c0,0,0.1,0,0.1,0c1.2,4.2-0.4,8.5,4.5,8.9
		c0,0,1.1,0.5,2.7,0.5v0c0,0,0,0,0,0c0,0,0,0,0,0v0c1.6,0,2.7-0.5,2.7-0.5c4.8,0,3.4-4.8,4.6-8.9c0,0,0.1,0,0.1,0
		c0.6,0.1,1.2-0.8,1.4-1.9C256.3,182.5,256,181.6,255.5,181.5z"/>
	<path class="st24" d="M250.6,199.3l-0.1-0.4c-0.3-0.5-0.3-0.5-0.8-0.6h-2.3h0H245c-0.6,0.1-0.6,0.1-0.8,0.6l-0.1,0.4
		c-0.2,0.4-0.2,0.6,0.3,0.6h3h0h3C250.8,199.9,250.8,199.7,250.6,199.3z"/>
	<path class="st25" d="M253.8,172.9c0.6-2.8-2.6-2.3-5.1-2.3c0,0-0.1,0-0.1,0c-2,0.2-7.3,0.7-9.2-1.1c0.1,2.2,1.2,4,1.2,4
		c-0.7,0.9-0.5,8.4-0.5,8.4s0.3,11,5,10.9c0,0,2.5-1.3,4.3-0.1c0,0,5.4,0.7,5.5-10.8c0,0,0.2-5.5,0.2-7
		C254.9,173.4,253.8,172.9,253.8,172.9z"/>
	<g>
		<g>
			<path class="st26" d="M259.5,217.2c0.1-0.1,0.3,0,0.4,0.1l0,0c0.1,0.1,0,0.3-0.1,0.4l-0.7,0.5c-0.1,0.1-0.3,0-0.4-0.1l0,0
				c-0.1-0.1,0-0.3,0.1-0.4L259.5,217.2z"/>
			<path class="st26" d="M258.8,217.8c0.1-0.1,0.2-0.1,0.4-0.1l0,0c0.1,0.1,0.1,0.2,0.1,0.4l-0.4,0.7c-0.1,0.1-0.2,0.1-0.4,0.1l0,0
				c-0.1-0.1-0.1-0.2-0.1-0.4L258.8,217.8z"/>
		</g>
		<g>
			<path class="st26" d="M260.4,216.8c0.1-0.1,0.3-0.1,0.4,0.1l0,0c0.1,0.1,0.1,0.3-0.1,0.4l-0.6,0.5c-0.1,0.1-0.3,0-0.4-0.1l0,0
				c-0.1-0.1,0-0.3,0.1-0.4L260.4,216.8z"/>
			<path class="st26" d="M259.7,217.4c0.1-0.1,0.2-0.1,0.4-0.1l0,0c0.1,0.1,0.1,0.2,0.1,0.4l-0.4,0.7c-0.1,0.1-0.2,0.1-0.4,0.1l0,0
				c-0.1-0.1-0.1-0.2-0.1-0.4L259.7,217.4z"/>
		</g>
		
			<rect x="261.8" y="218.2" transform="matrix(0.8138 -0.5811 0.5811 0.8138 -79.153 193.6878)" class="st3" width="1.7" height="4.4"/>
		<path class="st3" d="M260.8,218.8c0.1,0,0.2,0.2,0.2,0.3l0,0c0,0.1-0.2,0.2-0.3,0.2l-1.2-0.2c-0.1,0-0.2-0.2-0.2-0.3l0,0
			c0-0.1,0.2-0.2,0.3-0.2L260.8,218.8z"/>
		<path class="st3" d="M259.7,218.6c0.1,0.1,0.1,0.2,0.1,0.4l0,0c-0.1,0.1-0.2,0.1-0.4,0.1l-0.7-0.4c-0.1-0.1-0.1-0.2-0.1-0.4l0,0
			c0.1-0.1,0.2-0.1,0.4-0.1L259.7,218.6z"/>
		<g>
			<path class="st3" d="M259.1,217.5c0.1,0,0.3,0,0.3,0.2l0,0c0,0.1,0,0.3-0.2,0.3l-0.8,0.2c-0.1,0-0.3,0-0.3-0.2l0,0
				c0-0.1,0-0.3,0.2-0.3L259.1,217.5z"/>
			<path class="st3" d="M258.2,217.8c0.1-0.1,0.3-0.1,0.4,0.1l0,0c0.1,0.1,0.1,0.3-0.1,0.4l-0.6,0.5c-0.1,0.1-0.3,0.1-0.4-0.1l0,0
				c-0.1-0.1-0.1-0.3,0.1-0.4L258.2,217.8z"/>
		</g>
		<path class="st3" d="M262.3,218.2c0,0.1,0,0.2,0,0.2l-1.4,0.9c-0.1,0-0.2,0-0.2-0.1l-1.8-1.5c0-0.1,0-0.2,0-0.2l1.7-0.8
			c0.1,0,0.2,0,0.2,0.1L262.3,218.2z"/>
	</g>
	<g>
		<g>
			<path class="st26" d="M233.9,217.2c-0.1-0.1-0.3,0-0.4,0.1l0,0c-0.1,0.1,0,0.3,0.1,0.4l0.7,0.5c0.1,0.1,0.3,0,0.4-0.1l0,0
				c0.1-0.1,0-0.3-0.1-0.4L233.9,217.2z"/>
			<path class="st26" d="M234.6,217.8c-0.1-0.1-0.2-0.1-0.4-0.1l0,0c-0.1,0.1-0.1,0.2-0.1,0.4l0.4,0.7c0.1,0.1,0.2,0.1,0.4,0.1l0,0
				c0.1-0.1,0.1-0.2,0.1-0.4L234.6,217.8z"/>
		</g>
		<g>
			<path class="st26" d="M233,216.9c-0.1-0.1-0.3-0.1-0.4,0.1l0,0c-0.1,0.1-0.1,0.3,0.1,0.4l0.6,0.5c0.1,0.1,0.3,0.1,0.4-0.1l0,0
				c0.1-0.1,0.1-0.3-0.1-0.4L233,216.9z"/>
			<path class="st26" d="M233.7,217.4c-0.1-0.1-0.2-0.1-0.4-0.1l0,0c-0.1,0.1-0.1,0.2-0.1,0.4l0.4,0.7c0.1,0.1,0.2,0.1,0.4,0.1l0,0
				c0.1-0.1,0.1-0.2,0.1-0.4L233.7,217.4z"/>
		</g>
		<polygon class="st3" points="228.7,221.7 230.1,222.7 232.7,219.1 231.1,218.3 		"/>
		<path class="st3" d="M232.6,218.8c-0.1,0-0.2,0.2-0.2,0.3l0,0c0,0.1,0.2,0.2,0.3,0.2l1.2-0.2c0.1,0,0.2-0.2,0.2-0.3l0,0
			c0-0.1-0.2-0.2-0.3-0.2L232.6,218.8z"/>
		<path class="st3" d="M233.7,218.6c-0.1,0.1-0.1,0.2-0.1,0.4l0,0c0.1,0.1,0.2,0.1,0.4,0.1l0.7-0.4c0.1-0.1,0.1-0.2,0.1-0.4l0,0
			c-0.1-0.1-0.2-0.1-0.4-0.1L233.7,218.6z"/>
		<g>
			<path class="st3" d="M234.3,217.5c-0.1,0-0.3,0-0.3,0.2l0,0c0,0.1,0,0.3,0.2,0.3l0.8,0.2c0.1,0,0.3,0,0.3-0.2l0,0
				c0-0.1,0-0.3-0.2-0.3L234.3,217.5z"/>
			<path class="st3" d="M235.2,217.8c-0.1-0.1-0.3-0.1-0.4,0.1l0,0c-0.1,0.1-0.1,0.3,0.1,0.4l0.6,0.5c0.1,0.1,0.3,0.1,0.4-0.1l0,0
				c0.1-0.1,0.1-0.3-0.1-0.4L235.2,217.8z"/>
		</g>
		<path class="st3" d="M231.1,218.3c0,0.1,0,0.2,0,0.2l1.3,0.8c0.1,0,0.2,0,0.2-0.1l1.8-1.5c0-0.1,0-0.2,0-0.2l-1.7-0.8
			c-0.1,0-0.2,0-0.2,0.1L231.1,218.3z"/>
	</g>
	<path class="st27" d="M263.9,218.7c0.5,1,0.9,1.9,1.2,2.7c-0.7-1-1-1.3-1.6-2.1l-0.4-0.5l-0.1,0l-1.8,1l-0.1,0.1l0.1,0.1
		c0.8,1.1,1.6,2.4,2.6,3.7c0.5,0.7,1,1.3,1.4,1.8c0.2,0.3,0.5,0.6,0.8,0.9l0,0l0,0c0.1,0.1,0.1,0.1,0.2,0.2c0.2,0.2,0.5,0.5,1.1,0.8
		l0,0l0,0c0,0,0.1,0,0.1,0c0.1,0,0.2,0.1,0.5,0.1c0,0,0,0,0,0h0h0c0.5,0,0.8-0.2,1.1-0.5c0.4-0.5,0.4-0.8,0.4-1c0,0,0-0.1,0-0.1l0,0
		l0,0c0-0.4,0-0.6-0.1-0.8c0,0,0-0.1,0-0.1c-0.1-0.5-0.2-0.9-0.3-1.2c-0.2-0.7-0.5-1.4-0.8-2.2c-0.5-1.2-1-2.5-1.7-4.2
		c-2.6-6-5.8-10.3-8.1-15l-0.1-0.1l-0.1,0.1l-2.9,1.5l-0.1,0.1l0.1,0.1C257.7,208.5,261.1,212.9,263.9,218.7z M268,227.6
		C268,227.6,268,227.6,268,227.6C268,227.6,268,227.6,268,227.6C268,227.6,268,227.6,268,227.6z M267.5,227.5
		C267.5,227.5,267.5,227.5,267.5,227.5C267.5,227.5,267.5,227.5,267.5,227.5z M267.8,227.6C267.9,227.6,267.9,227.6,267.8,227.6
		C267.9,227.6,267.9,227.6,267.8,227.6z M267.8,227.6C267.8,227.6,267.8,227.6,267.8,227.6C267.8,227.6,267.8,227.6,267.8,227.6z
		 M267.7,227.6C267.7,227.6,267.7,227.6,267.7,227.6C267.7,227.6,267.7,227.6,267.7,227.6z M267.6,227.5
		C267.6,227.5,267.6,227.5,267.6,227.5C267.6,227.5,267.6,227.5,267.6,227.5z M267.5,227.5C267.6,227.5,267.6,227.5,267.5,227.5
		C267.6,227.5,267.6,227.5,267.5,227.5z"/>
	<path class="st27" d="M238.1,204.5l0.1-0.1l-0.1-0.1l-1.5-1.6l-0.1-0.1l-0.1,0.1c-2.5,3.4-6.9,8.8-9.5,14.7c-0.7,1.7-1.3,3-1.7,4.2
		c-0.3,0.8-0.6,1.5-0.8,2.2c-0.1,0.4-0.2,0.8-0.3,1.2c0,0,0,0.1,0,0.1c0,0.2-0.1,0.4-0.1,0.8l0,0l0,0c0,0,0,0.1,0,0.1
		c0,0.2,0,0.5,0.4,1c0.3,0.3,0.6,0.5,1.1,0.5h0h0c0,0,0,0,0,0c0.2,0,0.4,0,0.5-0.1c0,0,0.1,0,0.1,0l0,0l0,0c0.7-0.3,0.9-0.6,1.1-0.8
		c0.1-0.1,0.1-0.1,0.2-0.2l0,0l0,0c0.3-0.3,0.6-0.6,0.8-0.9c0.4-0.5,0.9-1.1,1.4-1.8c0.9-1.3,1.7-2.5,2.5-3.6l0.1-0.1l-0.2-0.1
		l-1.8-0.9l-0.2-0.1l-0.3,0.4c-0.6,0.8-0.8,1-1.6,2c0.4-0.8,0.8-1.7,1.2-2.7C232.4,212.9,235.8,208.8,238.1,204.5z M225.5,227.6
		C225.5,227.6,225.6,227.6,225.5,227.6C225.6,227.6,225.6,227.6,225.5,227.6C225.5,227.6,225.5,227.6,225.5,227.6z M226,227.5
		C226,227.5,226,227.5,226,227.5C226,227.5,226,227.5,226,227.5z M225.6,227.6C225.6,227.6,225.7,227.6,225.6,227.6
		C225.7,227.6,225.6,227.6,225.6,227.6z M225.7,227.6C225.7,227.6,225.7,227.6,225.7,227.6C225.7,227.6,225.7,227.6,225.7,227.6z
		 M225.8,227.6C225.8,227.6,225.8,227.6,225.8,227.6C225.8,227.6,225.8,227.6,225.8,227.6z M225.9,227.5
		C225.9,227.5,225.9,227.5,225.9,227.5C225.9,227.5,225.9,227.5,225.9,227.5z M225.9,227.5C225.9,227.5,226,227.5,225.9,227.5
		C226,227.5,225.9,227.5,225.9,227.5z"/>
	<path class="st27" d="M261.2,237.2l-1.7-26.1c-0.3-8,0.7-11.3-9.1-11.2h-2.9H247h-2.9c-8.8,0.4-9,4-9,11.3l0,25l2.2,3.5l21.7,0
		L261.2,237.2z"/>
	<path class="st9" d="M250,246c0,1.7,1.3,3,3,3h3.5c1.7,0,3-1.3,3-3l0,0c0-1.7-1.3-3-3-3H253C251.4,243,250,244.3,250,246L250,246z"
		/>
	<path class="st9" d="M245.4,246c0,1.7-1.3,3-3,3h-3.5c-1.7,0-3-1.3-3-3l0,0c0-1.7,1.3-3,3-3h3.5C244.1,243,245.4,244.3,245.4,246
		L245.4,246z"/>
	<polygon class="st28" points="258.8,240.9 237.2,240.9 237.1,239.6 258.9,239.6 	"/>
	<polygon class="st9" points="241.2,277.9 236.8,277.9 235.9,246 241.8,246 	"/>
	<polygon class="st9" points="254.3,277.8 258.7,277.8 259.6,246 253.7,246 	"/>
</g>
<g>
	<rect x="247" y="236" class="st29" width="2.7" height="41.3"/>
	<rect x="246.2" y="266.6" class="st30" width="4.2" height="10.7"/>
	<polygon class="st30" points="248.2,276.3 232.5,281 232.5,283.1 248.2,279.8 264.5,283.6 264.5,281.3 	"/>
	<ellipse class="st30" cx="233.5" cy="284.9" rx="1.9" ry="1.8"/>
	<ellipse class="st30" cx="248.5" cy="286.3" rx="1.9" ry="1.8"/>
	<ellipse class="st30" cx="263.2" cy="285.3" rx="1.9" ry="1.8"/>
	<polygon class="st30" points="249.5,284 247.3,284 247,277 249.7,277 	"/>
	<rect x="232.5" y="282.4" class="st30" width="0.7" height="1"/>
	<rect x="263.7" y="282.4" class="st30" width="0.7" height="1.7"/>
	<rect x="248.1" y="282.4" class="st30" width="0.7" height="2.6"/>
	<rect x="246.7" y="236" class="st30" width="3.1" height="14.4"/>
	<path class="st30" d="M262.9,250.8c0,1.2-1.1,2.1-2.4,2.1h-24.6c-1.3,0-2.4-0.9-2.4-2.1l0,0c0-1.1,1.1-2.1,2.4-2.1h24.6
		C261.8,248.8,262.9,249.7,262.9,250.8L262.9,250.8z"/>
	<path class="st30" d="M262.8,235.2c0,1.5-1.4,2.7-3,2.7h-23c-1.7,0-3-1.2-3-2.7v-13.1c0-1.5,1.4-2.7,3-2.7h23c1.7,0,3,1.2,3,2.7
		V235.2z"/>
	<path class="st29" d="M251.4,228.1c0-1.4-1.3-2.5-2.8-2.5H248c-1.5,0-2.8,1.1-2.8,2.5v13.5h6.2V228.1z"/>
</g>
<rect x="208.7" y="150.2" class="st14" width="1.6" height="1.6"/>
<rect x="210.9" y="150.2" class="st14" width="1.6" height="1.6"/>
<rect x="213.1" y="150.2" class="st14" width="1.6" height="1.6"/>
<rect x="215.3" y="150.2" class="st14" width="1.6" height="1.6"/>
<rect x="217.5" y="150.2" class="st14" width="1.6" height="1.6"/>
<rect x="219.7" y="150.2" class="st14" width="1.6" height="1.6"/>
<path class="st17" d="M71.6,59h43.3c0.8,0,1.4,0.6,1.4,1.4v31.3c0,0.8-0.6,1.4-1.4,1.4h-4.3l-0.1,10.9L98.8,93.1h-7.7l0,0H71.6
	c-0.8,0-1.4-0.6-1.4-1.4V60.4C70.2,59.6,70.8,59,71.6,59z"/>
</svg>
